<?xml version="1.0" encoding="utf-8"?>
<!-- Generator: Adobe Illustrator 19.0.0, SVG Export Plug-In . SVG Version: 6.00 Build 0)  -->
<!DOCTYPE svg PUBLIC "-//W3C//DTD SVG 1.1//EN" "http://www.w3.org/Graphics/SVG/1.1/DTD/svg11.dtd">
<svg version="1.1" id="Layer_1" xmlns="http://www.w3.org/2000/svg" xmlns:xlink="http://www.w3.org/1999/xlink" x="0px" y="0px"
	 viewBox="-379 281 40 40" style="enable-background:new -379 281 40 40;" xml:space="preserve">
<g>
	<g>
		<path d="M-341.1,317.3l-10.7-10.7c2.4-2.6,3.8-6.1,3.8-9.9c0-8.1-6.6-14.6-14.6-14.6c-8.1,0-14.6,6.6-14.6,14.6
			s6.6,14.6,14.6,14.6c3.4,0,6.5-1.1,8.9-3.1l10.7,10.8c0.2,0.2,0.6,0.4,0.9,0.4s0.6-0.1,0.9-0.4
			C-340.6,318.6-340.6,317.8-341.1,317.3z M-354.4,305.7C-354.4,305.7-354.4,305.7-354.4,305.7c-2.2,2-5,3.2-8.2,3.2
			c-6.7,0-12.1-5.4-12.1-12.1s5.4-12.1,12.1-12.1c6.7,0,12.1,5.4,12.1,12.1C-350.4,300.3-351.9,303.5-354.4,305.7z"/>
	</g>
</g>
</svg>
