<?xml version="1.0" encoding="utf-8"?>
<!-- Generator: Adobe Illustrator 18.1.1, SVG Export Plug-In . SVG Version: 6.00 Build 0)  -->
<!DOCTYPE svg PUBLIC "-//W3C//DTD SVG 1.1//EN" "http://www.w3.org/Graphics/SVG/1.1/DTD/svg11.dtd">
<svg version="1.1" id="Layer_1" xmlns="http://www.w3.org/2000/svg" xmlns:xlink="http://www.w3.org/1999/xlink" x="0px" y="0px"
	 viewBox="0 0 40 40" enable-background="new 0 0 40 40" xml:space="preserve">
<g>
	<path d="M21.2,39.4L21.2,39.4l-2.7-0.1c-1.1,0-2-0.9-2-2.1l0-13.9l-13.8,0c-0.6,0-1.1-0.2-1.5-0.6c-0.4-0.4-0.6-0.9-0.6-1.5l0-2.9
		c0-1.1,0.9-2.1,2.1-2.1l13.8,0.1l0-13.8c0-0.6,0.2-1.1,0.6-1.5c0.4-0.4,0.9-0.6,1.5-0.6l2.9,0c0.6,0,1.1,0.2,1.5,0.6
		c0.4,0.4,0.6,0.9,0.6,1.5l-0.1,13.8l14,0.1c0.6,0,1.1,0.2,1.5,0.6c0.4,0.4,0.6,0.9,0.6,1.5l-0.1,2.7c0,1.1-0.9,2-2.1,2l-13.9,0
		l-0.1,13.9C23.3,38.5,22.3,39.4,21.2,39.4z M18.5,21.4l0,15.9l2.7,0.1l0,1v-1c0,0,0,0,0-0.1l0.1-15.9l15.9,0l0.1-2.7l-16.1-0.1
		l0.1-15.9l-2.9-0.1l0,14.9l0,1L2.7,18.4l-0.1,2.9l14.8,0L18.5,21.4z"/>
</g>
</svg>
